PathFileType	4	(X/Y/Z)	s03c0403.trc
DataRate	CameraRate	NumFrames	NumMarkers	Units	OrigDataRate	OrigDataStartFrame	OrigNumFrames
200	200	6	52	mm	200	1000	2000
Frame#	Time	racr			lacr			c7			jug			rlel			rdr			llel			ldr			s2			lic			ric			lasi			rasi			rpsi			lpsi			rgt			lgt			rth1			rth2			rth3			rth4			rlfc			rmfc			rsh1			rsh2			rsh3			rsh4			rlmal			rmmal			rcal			rtoe			rmt5			rmt1			lth1			lth2			lth4			lth3			llfc			lmfc			lsh1			lsh2			lsh3			lsh4			llmal			lmmal			lcal			ltoe			lmt1			lmt5			SBIKE			LBIKE			RBIKE			
		X1	Y1	Z1	X2	Y2	Z2	X3	Y3	Z3	X4	Y4	Z4	X5	Y5	Z5	X6	Y6	Z6	X7	Y7	Z7	X8	Y8	Z8	X9	Y9	Z9	X10	Y10	Z10	X11	Y11	Z11	X12	Y12	Z12	X13	Y13	Z13	X14	Y14	Z14	X15	Y15	Z15	X16	Y16	Z16	X17	Y17	Z17	X18	Y18	Z18	X19	Y19	Z19	X20	Y20	Z20	X21	Y21	Z21	X22	Y22	Z22	X23	Y23	Z23	X24	Y24	Z24	X25	Y25	Z25	X26	Y26	Z26	X27	Y27	Z27	X28	Y28	Z28	X29	Y29	Z29	X30	Y30	Z30	X31	Y31	Z31	X32	Y32	Z32	X33	Y33	Z33	X34	Y34	Z34	X35	Y35	Z35	X36	Y36	Z36	X37	Y37	Z37	X38	Y38	Z38	X39	Y39	Z39	X40	Y40	Z40	X41	Y41	Z41	X42	Y42	Z42	X43	Y43	Z43	X44	Y44	Z44	X45	Y45	Z45	X46	Y46	Z46	X47	Y47	Z47	X48	Y48	Z48	X49	Y49	Z49	X50	Y50	Z50	X51	Y51	Z51	X52	Y52	Z52	
1000	5.0000	847.846559	1379.989152	-57.503959	834.978221	1372.817659	-395.832156	810.929456	1485.703288	-223.949950	783.495287	1312.098172	-221.610042	635.593016	1202.460415	82.399717	751.940274	977.729243	-8.292074	635.550606	1217.490375	-557.679419	739.315170	979.018449	-460.317571	246.240851	1291.004452	-194.732678	407.340416	1294.113281	-394.816970	426.866670	1299.356640	-27.485191	419.216770	1219.951733	-354.871626	442.853829	1224.806407	-78.468150	285.380363	1339.017806	-152.385385	283.316448	1335.632600	-234.926615	374.365016	1197.610055	-8.035348	331.744415	1178.684798	-400.330718	450.651875	1056.301514	-2.532816	515.438969	996.459541	-11.731252	543.586660	915.947314	-17.221561	542.437173	1015.883095	-27.362170	578.418979	791.980348	-42.054148	562.803549	773.138974	-157.194379	432.931169	704.707534	-17.329593	365.899039	649.159743	-33.235468	278.388241	632.579292	-34.104439	380.491598	626.514739	-60.879353	155.447265	586.639570	-55.405693	180.989570	574.610112	-139.368036	88.152434	614.604755	-91.577226	224.735036	337.096415	-123.692552	159.513806	428.506835	-44.587245	179.166772	423.072169	-160.133678	385.282399	1024.636248	-426.817316	433.561464	952.842320	-429.738176	468.050290	965.060928	-426.029146	440.803965	864.243189	-419.496670	498.342029	747.957874	-404.400142	505.316512	730.747860	-286.328404	415.298466	596.582550	-435.568927	401.974883	513.863313	-420.889670	346.610363	442.607719	-420.154119	433.016032	501.858823	-399.197879	287.692500	330.067316	-409.799468	325.161802	337.163602	-316.271988	212.889830	302.754667	-365.813271	509.239053	208.255367	-360.903127	416.927104	234.541326	-318.988917	388.362654	219.363680	-435.819568	-212.877531	945.743688	-234.137648	-9.146913	80.472028	-433.595023	-9.043048	80.865114	-33.203168	
1001	5.0050	845.956028	1381.944029	-54.981477	835.045744	1373.426793	-393.872480	809.681989	1487.095276	-221.924200	782.995838	1313.329797	-219.228914	634.069323	1201.993510	83.214003	751.697747	977.747263	-8.059114	634.923592	1217.045232	-555.459026	739.339432	978.939670	-460.084270	245.641640	1289.306623	-196.303602	408.409746	1292.757358	-395.752261	425.469827	1298.556131	-28.851383	420.431084	1218.556197	-355.655987	442.207714	1224.574245	-79.644868	284.281643	1337.729480	-153.659184	283.342822	1333.365803	-237.771661	374.910163	1197.935917	-8.744913	331.938456	1175.777815	-400.585632	453.255697	1058.321321	-2.751660	519.308156	999.806000	-11.353803	549.230149	919.890944	-16.684467	545.849876	1019.778536	-27.498306	585.917927	796.524825	-41.387427	571.478084	777.673623	-157.204858	439.968069	710.743170	-17.490056	372.303577	655.766620	-33.601249	284.804378	640.308958	-34.806605	386.784440	633.084620	-61.126849	161.765671	595.220874	-55.787338	187.240508	583.157623	-140.193109	94.119917	622.985118	-92.096026	232.331527	346.365962	-124.056896	166.818668	437.480751	-44.992308	185.747051	432.499660	-159.950420	382.159325	1020.631863	-426.250545	428.860238	947.865474	-429.058357	463.595189	959.435950	-425.675864	434.351198	859.220990	-418.092542	490.237092	742.867434	-402.829148	497.252612	725.659526	-285.215372	408.940679	590.890623	-434.840417	396.337607	508.011549	-420.645085	341.616801	436.268378	-420.327452	427.341410	496.190033	-398.620092	283.254745	323.520444	-410.237202	320.260028	329.819099	-316.923859	208.571054	297.551789	-366.692967	502.754804	196.640866	-360.238001	411.128100	225.554875	-319.040843	382.462157	210.259930	-435.692930	-212.917412	945.712074	-234.121421	-9.168967	80.452961	-433.589173	-9.039099	80.867914	-33.216082	
1002	5.0100	844.147351	1383.456583	-52.180390	835.079276	1374.207057	-391.930288	808.523437	1488.423385	-219.871400	782.446524	1314.519351	-216.953712	632.611463	1201.366712	84.094409	751.465340	977.751380	-7.776791	633.900015	1216.484055	-552.610142	739.417652	978.945821	-459.918833	245.568963	1288.838942	-198.442041	409.595409	1291.603120	-396.748230	423.884582	1298.256925	-29.633514	421.569534	1217.213169	-356.342229	441.729985	1225.626644	-80.437399	283.166719	1336.530577	-155.258732	284.020390	1331.656945	-241.880959	375.153945	1198.419331	-9.539386	332.221170	1173.005422	-400.831646	455.698456	1060.511906	-3.018172	523.036907	1003.602999	-11.035024	554.723197	924.078635	-16.237515	549.083358	1023.800535	-27.861214	593.238347	801.271380	-40.626373	580.037141	782.387570	-157.154597	447.016244	716.931238	-17.630878	378.797664	662.572977	-34.060325	291.280900	647.781775	-35.454646	393.412435	639.515956	-61.278083	168.418935	603.326962	-56.264092	193.880703	591.348830	-141.055336	100.495875	630.901989	-92.780858	240.246554	355.064026	-124.398796	174.362865	446.033528	-45.512459	193.362298	440.991735	-160.164161	379.069069	1017.127597	-425.739971	424.337576	943.198094	-427.691111	459.181250	954.140393	-425.376311	427.879454	854.647786	-416.837047	482.009502	738.037608	-401.243190	488.951677	720.777737	-284.173828	402.248280	585.652277	-434.068281	390.388853	502.622372	-420.376513	336.329999	430.376678	-420.511524	421.130814	491.359393	-398.697342	278.579958	317.450211	-410.652966	315.045913	322.950738	-317.670410	203.986455	293.018931	-367.480230	495.799460	185.439977	-359.504138	404.713806	216.832350	-318.820675	376.151009	201.680256	-435.620256	-212.954717	945.698653	-234.112550	-9.162239	80.461369	-433.588151	-9.049213	80.858645	-33.205020	
1003	5.0150	842.503959	1385.688022	-48.342104	834.809156	1375.006460	-389.959636	807.412688	1489.665343	-217.671153	781.980604	1315.640834	-213.509985	631.313216	1200.787253	85.019440	751.274347	977.719380	-7.412744	633.454220	1216.278283	-550.279410	739.547409	979.022869	-459.892024	245.138660	1287.176967	-200.399878	410.913645	1290.558512	-397.599253	422.211969	1298.146573	-30.270739	422.801591	1215.947095	-356.910563	441.253741	1225.833819	-80.800962	282.026855	1335.275197	-157.601629	281.844090	1331.058852	-234.307707	375.050887	1199.099176	-10.363085	332.719093	1170.450802	-401.237021	457.978049	1062.840686	-3.362790	526.684571	1007.287408	-10.482634	560.088822	928.624306	-15.852988	552.153644	1027.851271	-27.628277	600.182224	806.318375	-39.750485	590.080948	789.712409	-163.700383	454.083843	723.115735	-17.775927	385.591092	669.209215	-34.457693	297.991716	655.035343	-36.167864	400.348634	646.155046	-61.271252	175.346778	611.083076	-56.716709	200.858155	599.065421	-141.998247	107.015600	638.216713	-93.438515	248.797865	363.338400	-124.690713	182.712652	454.116579	-45.709979	201.302702	448.252141	-160.916927	376.070927	1014.095200	-425.316237	419.663734	939.180362	-427.225349	454.799216	949.315211	-425.143642	421.298695	850.585612	-415.950281	473.637702	733.486526	-399.808904	480.397854	716.158136	-283.222400	394.838455	581.257015	-433.821210	384.019589	497.751761	-420.066624	330.641773	425.029515	-420.642232	414.799023	486.638908	-398.187058	273.513456	311.874341	-411.011732	309.562942	316.575558	-318.526191	199.078922	289.198219	-368.420450	488.324070	174.836820	-358.585158	397.904937	208.750920	-318.829814	369.355335	193.564335	-435.566434	-212.981018	945.671441	-234.103311	-9.153227	80.471502	-433.574013	-9.046824	80.840290	-33.202903	
1004	5.0200	840.557052	1387.703580	-43.922398	834.941652	1376.117629	-387.877703	806.660873	1490.939850	-215.333220	781.399363	1316.873017	-209.956939	630.106981	1200.205329	86.036989	751.141047	977.661855	-7.002477	634.560308	1216.899231	-549.613409	739.731251	979.102175	-459.976916	244.750811	1285.597102	-202.554334	412.436298	1289.634562	-398.316176	420.308175	1298.139180	-30.757644	424.058480	1214.882795	-357.304794	440.750954	1225.990453	-80.894210	279.321782	1335.823119	-162.785509	281.150327	1329.381784	-243.205025	374.593310	1199.902588	-11.214457	333.315020	1168.117598	-401.724542	460.174224	1065.377540	-3.698763	530.390133	1011.230264	-11.241269	565.319634	933.268543	-15.596612	554.895550	1032.650674	-28.063019	607.662555	811.769788	-39.870316	597.713443	794.762776	-162.886291	461.209108	729.464375	-17.926346	392.385886	675.618553	-34.898989	304.949851	662.046379	-36.854321	407.188898	652.438295	-61.504240	182.563757	618.279600	-57.275441	208.067014	606.448918	-142.896473	113.728964	645.013943	-94.132921	257.984439	371.360165	-125.012559	191.291942	461.652858	-46.057245	209.593947	455.819508	-161.364970	373.176314	1011.542595	-425.004646	415.098971	935.677148	-426.768624	450.413048	945.099962	-424.933671	414.773908	847.100173	-415.149178	465.068058	729.467618	-398.493039	471.418219	711.735044	-282.672268	387.346700	577.076317	-433.252200	377.223985	493.478961	-419.971386	324.455190	420.226649	-420.902436	408.097100	482.462561	-398.045875	268.072727	306.823959	-411.322076	303.854602	310.710722	-319.505633	193.919811	286.053129	-369.512902	480.190098	164.481297	-357.333822	390.532947	201.043217	-318.712294	362.200157	186.041071	-435.575684	-213.007430	945.640319	-234.094514	-9.142427	80.421692	-433.571734	-9.042067	80.833943	-33.191880	
1005	5.0250	839.057672	1388.485950	-42.852304	835.128333	1377.257038	-385.662867	805.798868	1491.997436	-212.804481	781.104082	1317.769345	-208.448146	629.092925	1199.527155	87.142515	751.047648	977.624280	-6.481718	641.719228	1220.153759	-555.155476	739.980974	979.143419	-460.193989	244.946882	1283.918344	-204.854446	414.151353	1288.833045	-399.144936	418.176407	1298.249225	-31.259528	425.371815	1214.005371	-357.684865	437.813065	1228.516016	-71.648476	278.258690	1334.802773	-165.153781	282.055098	1327.717755	-246.227276	373.793654	1200.838284	-12.150819	334.075348	1166.032113	-402.382422	462.203951	1067.926439	-3.832914	533.626757	1015.358770	-12.034137	570.404830	938.184665	-15.351867	557.758624	1037.390679	-27.997253	614.939781	817.621962	-39.368329	605.720317	800.398579	-162.886252	468.317485	735.780630	-18.049529	399.361729	682.215360	-35.312402	311.946860	668.806882	-37.474973	415.197941	659.929387	-60.699412	189.854099	625.034637	-57.884438	215.409221	613.386530	-143.686416	120.555119	651.065160	-94.697308	267.633843	378.980185	-125.395620	200.237043	468.653487	-46.421231	218.291096	462.891285	-161.707499	370.436821	1009.501434	-424.888103	410.623626	932.653385	-426.396968	446.028882	941.307174	-424.655236	408.237140	844.206041	-414.643091	456.344621	725.844998	-397.338159	462.307202	707.546358	-281.767734	379.435690	573.424176	-432.891132	370.105518	489.666505	-420.113029	317.971188	415.969229	-421.297201	401.002190	479.221011	-398.691401	262.386810	302.312807	-411.841452	297.964316	305.373301	-320.623166	188.592155	283.438159	-370.896091	471.034684	153.339247	-354.519029	382.866117	194.082386	-318.855735	354.721878	179.049621	-435.594863	-213.025857	945.623914	-234.100841	-9.147319	80.411554	-433.570627	-9.048767	80.812365	-33.205067	
